# xmcd
#
# Track frame offsets:
#	150
#	13137
#	25486
#	38389
#	56407
#	74457
#	89906
#	107716
#	125554
#	137402
#	151833
#	170535
#
# Disc length: 2493 seconds
#
# Revision: 0
# Processed by: cddbd v1.5.2PL0 Copyright (c) Steve Scherf et al.
# Submitted via: SynApp - FreeCDDB Version: 2.0
#
DISCID=9e09bb0c
DTITLE=Suzie Candell - Suzie Candell
DYEAR=2006
DGENRE=Country
TTITLE0=Let'er rip
TTITLE1=Wild one
TTITLE2=Exept for monday
TTITLE3=She's in love with the boy
TTITLE4=Two sparrows in a hurricane
TTITLE5=Queen of hearts
TTITLE6=Strawberry wine
TTITLE7=Ready to run
TTITLE8=That's what I like about you
TTITLE9=Jolene
TTITLE10=Goodbye Earl
TTITLE11=Wide open spaces
EXTD=
EXTT0=
EXTT1=
EXTT2=
EXTT3=
EXTT4=
EXTT5=
EXTT6=
EXTT7=
EXTT8=
EXTT9=
EXTT10=
EXTT11=
PLAYORDER=
